<svg xmlns="http://www.w3.org/2000/svg" viewBox="0 0 300 300" width="300" height="300"><style>
		tspan { white-space:pre }
		.shp0 { fill: #fb6970 } 
	</style><path id="Layer" class="shp0" d="M144.83 229.2C196.23 229.2 235.95 190.38 235.95 142.5C235.95 97.64 198.63 70.25 173.91 70.25C139.49 70.25 111.89 94.39 107.96 130.24C107.23 136.88 101.97 142.45 95.29 142.4C84.19 142.32 68.05 142.23 57.84 142.26C53.44 142.28 49.8 138.71 50.02 134.31C51.56 103.22 61.96 74.15 81.79 51.82C103.83 27.01 135.92 12.44 173.91 12.44C237.74 12.44 298 70.42 298 142.5C298 222.3 231.85 287 146.18 287C85.09 287 23.56 247.09 2.07 191.29C2.06 191.24 2.04 191.19 2.03 191.13C2.02 191.08 2.01 191.03 2 190.97C2 190.92 2 190.86 2 190.81C2 190.75 2.01 190.7 2.02 190.64C2.31 188.99 2.88 187.49 3.43 186C4.25 183.84 5.04 181.73 4.93 179.3L4.55 171.53C4.51 170.59 4.61 169.65 4.84 168.75C5.07 167.84 5.44 166.97 5.92 166.17C6.41 165.37 7.01 164.65 7.71 164.03C8.41 163.4 9.2 162.89 10.05 162.49L13.15 161.05C14.02 160.65 14.83 160.14 15.58 159.55C16.33 158.95 17 158.27 17.59 157.52C18.17 156.76 18.67 155.94 19.06 155.07C19.45 154.2 19.73 153.28 19.91 152.34C20.95 146.64 25.95 142.5 31.79 142.5C40.92 142.5 48.85 148.56 51.83 157.19C66.18 198.69 88.99 229.2 144.83 229.2Z"></path></svg>