<svg xmlns="http://www.w3.org/2000/svg" viewBox="0 0 140 140" width="140" height="140"><defs><linearGradient id="grd1" gradientUnits="userSpaceOnUse" x1="117.271" y1="129.271" x2="13.844" y2="-7.831"><stop offset="0" stop-color="#632adb"></stop><stop offset="1" stop-color="#03b3ff"></stop></linearGradient></defs><style>
		tspan { white-space:pre }
		.shp0 { fill: url(#grd1) } 
	</style><path id="Layer" class="shp0" d="M31.97 8.83C38.38 15.24 38.38 25.63 31.97 32.03C30.9 33.1 29.72 34 28.46 34.71L28.46 111.31L78.5 111.31L78.5 72.62L45.45 105.67L45.45 12.18L127.59 12.18L127.59 104.98C128.89 105.7 130.1 106.61 131.2 107.71C137.61 114.12 137.61 124.51 131.2 130.91C124.79 137.32 114.4 137.32 107.99 130.91C101.59 124.51 101.59 114.12 107.99 107.71C109.08 106.63 110.27 105.73 111.54 105.01L111.54 28.23L61.5 28.23L61.5 66.92L94.55 33.87L94.55 127.36L12.41 127.36L12.41 34.78C11.1 34.06 9.87 33.14 8.77 32.03C2.36 25.63 2.36 15.24 8.77 8.83C15.17 2.42 25.56 2.42 31.97 8.83Z"></path></svg>