<svg xmlns="http://www.w3.org/2000/svg" viewBox="0 0 500 500" width="500" height="500"><style>
		tspan { white-space:pre }
		.shp0 { fill: #000000 } 
		.shp1 { fill: #ffffff } 
	</style><g id="Layer"><path id="Layer 1" class="shp0" d="M249.8 494.69C114.37 494.69 4.9 385.22 4.9 249.8C4.9 114.37 114.37 4.9 249.8 4.9C385.22 4.9 494.69 114.37 494.69 249.8C494.69 385.22 385.22 494.69 249.8 494.69Z"></path><path id="Layer" fill-rule="evenodd" class="shp1" d="M249.63 127.35C356 127.35 359.35 127.43 362.29 128.9C366.04 130.86 370.2 135.1 371.35 138.2C372 139.76 372.24 174.94 372.24 250.61L372.24 360.65L369.63 364.57C368 366.94 365.55 369.22 363.35 370.37L359.76 372.24L250.12 372.24C184.24 372.24 139.76 371.92 138.53 371.51C135.43 370.29 130.69 365.8 128.9 362.37C127.35 359.35 127.35 356.49 127.35 249.8C127.35 143.67 127.43 140.24 128.9 137.31C130.69 133.88 133.96 130.61 137.55 128.73C139.76 127.51 151.35 127.43 249.63 127.35ZM348.57 151.02L151.02 151.02L151.02 348.57L348.57 348.57L348.57 151.02Z"></path><path id="Layer" class="shp1" d="M208.65 169.47C207.51 170.61 207.35 176 207.35 217.06C207.35 242.53 207.1 278.29 206.78 296.41C206.29 327.02 206.37 329.55 207.67 330.86C208.9 332.08 210.86 332.24 221.88 332.24C228.9 332.24 235.27 331.84 235.92 331.43C236.98 330.78 237.22 326.61 237.55 305.14L237.96 279.59L241.88 279.59C244 279.67 249.06 279.76 253.06 279.84L260.41 280L260.41 305.31C260.41 329.47 260.49 330.61 261.96 331.43C262.86 331.92 269.06 332.24 276.16 332.24C286.94 332.24 288.98 332.08 289.88 330.86C290.86 329.8 291.18 315.59 291.76 250.86C292.24 193.96 292.16 171.59 291.51 170.12C290.61 168.16 290.61 168.16 276.82 168.16C265.39 168.16 262.86 168.41 262.04 169.39C261.22 170.37 260.9 179.67 260.57 209.8L260.16 248.98L257.22 248.98C255.59 248.98 250.69 248.73 246.37 248.41L238.37 247.92L238.37 208.98C238.37 179.84 238.12 169.88 237.39 169.14C236.73 168.49 232.41 168.16 223.18 168.16C212.24 168.16 209.71 168.41 208.65 169.47Z"></path></g></svg>