<svg xmlns="http://www.w3.org/2000/svg" viewBox="0 0 900 900" width="900" height="900"><style>
		tspan { white-space:pre }
		.shp0 { fill: #2c2e35 } 
	</style><g id="Folder 1"><path id="Path 1" class="shp0" d="M655.37 425.9C661.69 425.15 667.74 425.12 673.3 425.9C676.52 418.52 677.07 405.8 674.18 391.94C669.88 371.35 664.05 358.88 652.02 360.82C639.98 362.76 639.54 377.68 643.84 398.28C646.26 409.87 650.57 419.77 655.37 425.9ZM552.05 442.2C560.66 445.98 565.95 448.49 568.03 446.3C569.36 444.93 568.96 442.33 566.9 438.97C562.65 432.03 553.91 425 544.64 421.04C525.67 412.88 503.05 415.6 485.6 428.14C479.84 432.36 474.37 438.2 475.16 441.75C475.41 442.9 476.27 443.77 478.29 444.05C483.04 444.59 499.64 436.2 518.76 435.03C532.26 434.2 543.44 438.42 552.05 442.2ZM534.73 452.09C523.51 453.86 517.33 457.55 513.36 460.99C509.97 463.96 507.87 467.23 507.89 469.53C507.9 470.63 508.37 471.26 508.75 471.57C509.26 472.03 509.87 472.28 510.59 472.28C513.13 472.28 518.8 470 518.8 470C534.41 464.41 544.7 465.09 554.91 466.25C560.55 466.89 563.21 467.24 564.45 465.3C564.81 464.75 565.26 463.55 564.13 461.72C561.5 457.45 550.17 450.25 534.73 452.09ZM620.48 488.37C628.1 492.11 636.49 490.64 639.21 485.09C641.94 479.54 637.98 472 630.37 468.26C622.75 464.52 614.36 465.99 611.64 471.54C608.91 477.09 612.87 484.63 620.48 488.37ZM669.44 445.59C663.26 445.49 658.12 452.28 657.98 460.76C657.84 469.24 662.74 476.21 668.92 476.31C675.11 476.42 680.24 469.62 680.38 461.14C680.53 452.66 675.63 445.69 669.44 445.59ZM253.91 598.56C252.37 596.63 249.84 597.22 247.39 597.79C245.68 598.19 243.75 598.64 241.62 598.6C237.07 598.52 233.22 596.57 231.05 593.25C228.24 588.92 228.4 582.47 231.51 575.08C231.93 574.08 232.42 572.98 232.96 571.77C237.92 560.64 246.23 542.01 236.9 524.25C229.89 510.89 218.44 502.57 204.68 500.82C191.47 499.15 177.87 504.05 169.2 513.62C155.51 528.72 153.37 549.26 156.02 556.52C156.99 559.18 158.51 559.91 159.61 560.06C161.94 560.38 165.38 558.68 167.54 552.88C167.69 552.46 167.9 551.82 168.15 551C169.11 547.93 170.91 542.22 173.84 537.64C177.37 532.11 182.88 528.31 189.34 526.93C195.92 525.52 202.65 526.77 208.28 530.46C217.87 536.74 221.56 548.48 217.47 559.69C215.35 565.49 211.91 576.58 212.67 585.68C214.2 604.12 225.54 611.52 235.73 612.31C245.63 612.68 252.56 607.12 254.31 603.05C255.34 600.65 254.47 599.19 253.91 598.56Z"></path><path id="Path 2" fill-rule="evenodd" class="shp0" d="M857.43 613.58C857.43 647.86 843.2 686.7 839.85 695.33C788.6 818.14 666.28 886.51 520.58 882.18C384.74 878.15 268.89 806.47 218.19 689.62C187.53 689.65 155.93 676.17 131.9 654.89C106.59 632.46 90.97 603.43 87.93 573.16C85.56 549.58 88.46 527.66 95.84 508.53L67.37 484.41C-62.92 374.39 344.6 -78.58 474.94 35.1C475.6 35.68 519.28 78.54 519.39 78.64C519.56 78.56 543.49 68.41 543.61 68.36C657.93 21.02 750.7 43.88 750.82 119.41C750.88 158.69 725.85 204.48 685.75 246.04C700.28 259.53 711.92 280.6 718.6 304.69C724.21 322.49 725.2 340.55 725.71 352.12C726.41 368.13 727.18 405.42 727.25 406.09C728.27 406.4 739.84 409.58 743.35 410.56C774.04 419.18 795.87 430.65 806.55 441.86C817.23 453.07 822.52 463.91 824.44 476.64C826.24 486.9 826 505.02 812.47 525.29C812.47 525.29 815.96 532.9 819.34 543.72C822.71 554.54 825.16 563.51 825.54 564.85C837.95 564.85 857.43 579.13 857.43 613.58ZM505.12 635.97C507.46 655.69 526.68 664.54 535.87 668.11C547.43 672.61 560.09 674.69 560.09 674.69C664.3 692.61 761.73 633.03 783.67 618.02C785.31 616.9 786.4 617.99 785.08 619.98C783.81 621.9 783.74 622.01 782.93 623.04C756.09 657.67 683.91 697.77 590.01 697.76C549.06 697.76 508.12 683.32 493.1 661.16C469.78 626.76 491.94 576.55 530.79 581.78C530.84 581.79 544.08 583.29 547.81 583.7C596.38 589.11 666.68 582.3 724.63 555.41C777.63 530.8 797.66 503.72 794.65 481.8C793.84 475.9 791.2 469.7 785.52 463.88C775.99 454.55 760.88 447.29 735.4 440.14C726.98 437.77 721.27 436.26 715.11 434.24C704.17 430.64 698.76 427.74 697.54 407.16C697 398.16 695.44 366.81 694.87 353.86C693.87 331.16 691.14 300.13 671.89 287.32C666.87 283.98 661.29 282.37 655.43 282.06C649.69 281.79 646.81 282.82 645.66 283.02C634.67 284.88 628.18 290.73 620.07 297.48C596.06 317.49 575.78 320.77 553.24 319.8C539.76 319.23 525.49 317.13 509.12 316.16C505.94 315.97 502.74 315.78 499.55 315.61C461.79 313.68 421.29 346.3 414.56 392.61C405.19 457.07 451.88 490.39 465.35 509.94C467.07 512.27 469.06 515.57 469.06 518.7C469.06 522.44 466.64 525.41 464.26 527.93C464.26 527.94 464.27 527.95 464.27 527.95C425.74 567.56 413.42 630.5 427.93 682.96C429.75 689.51 432.05 695.78 434.76 701.76C468.83 781.36 574.5 818.43 677.74 784.72C691.57 780.2 704.66 774.61 716.96 768.15C740.12 756.81 760.36 741.21 777.02 723.26C804.41 694.64 820.7 663.53 827.03 625.19C830.14 604.67 825.59 596.74 819.39 592.92C812.82 588.88 804.96 590.29 804.96 590.29C804.96 590.29 801.38 565.75 791.23 543.46C761.14 567.21 722.4 583.89 692.91 592.36C658.87 602.13 612.81 609.64 561.42 606.57C532.91 604.27 514.05 595.95 506.96 619C572.08 642.84 641.02 632.64 641.02 632.64C642.36 632.5 643.55 633.47 643.68 634.81C643.79 635.89 643.13 636.99 642.18 637.39C642.18 637.39 589.22 661.98 505.12 635.97ZM508.96 621.66C508.96 621.67 508.96 621.67 508.96 621.67C508.96 621.67 508.96 621.67 508.96 621.66ZM508.96 621.67C508.97 621.69 508.98 621.71 508.99 621.73C508.98 621.71 508.97 621.7 508.97 621.69C508.97 621.68 508.96 621.67 508.96 621.67ZM361.93 182.13C423 131.2 488.86 94.66 488.86 94.66C488.86 94.66 453.39 53.53 442.68 50.5C376.8 32.69 234.48 130.84 143.61 260.52C106.84 312.99 54.21 405.9 79.37 453.69C82.48 459.61 100.03 474.82 109.45 482.68C125.21 459.78 150.99 443.21 180.24 437.52C217.48 337.59 279.64 245.5 361.93 182.13ZM281.63 546.19C272.76 488.84 233.97 468.63 207.65 467.19C200.33 466.81 193.54 467.46 187.92 468.59C140.94 478.07 114.4 518.04 119.62 569.97C124.35 616.96 171.88 656.57 215.89 657.76C220.45 657.86 224.96 657.56 229.39 656.81C277.01 648.69 289.48 596.98 281.63 546.19ZM350.03 262.14C377.93 241.85 416.18 222.98 466.29 210.75C522.42 197.06 576.46 202.8 609.47 210.37C611.12 210.75 612.17 207.89 610.69 207.06C588.88 194.82 555.4 186.51 531.66 186.35C530.49 186.34 529.83 184.98 530.53 184.04C534.64 178.52 540.26 173.06 545.4 169.12C546.56 168.23 545.86 166.37 544.4 166.46C510.59 168.54 472.04 184.73 449.87 199.83C448.78 200.58 447.36 199.6 447.64 198.31C449.36 189.99 454.81 179.02 457.64 173.9C458.3 172.69 457 171.35 455.76 171.98C420.14 190.2 380.37 222.66 348.07 259.99C346.93 261.31 348.62 263.17 350.03 262.14Z"></path></g></svg>