<svg xmlns="http://www.w3.org/2000/svg" viewBox="0 0 300 284" width="800" height="757"><defs><image width="271" height="10" id="img1"></image></defs><style>
		tspan { white-space:pre }
		.shp0 { fill: #ffffff } 
	</style><g id="Folder 4044" style="opacity: 0.8"><g id="Folder 4058"><path id="Background copy 13720" class="shp0" d="M280.7 25.84C278.29 25.84 276.35 23.89 276.35 21.48C276.35 19.07 278.29 17.13 280.7 17.13C283.11 17.13 285.06 19.07 285.06 21.48C285.06 23.89 283.11 25.84 280.7 25.84Z"></path><path id="Background copy 13721" class="shp0" d="M258.92 25.84C256.51 25.84 254.57 23.89 254.57 21.48C254.57 19.07 256.51 17.13 258.92 17.13C261.33 17.13 263.28 19.07 263.28 21.48C263.28 23.89 261.33 25.84 258.92 25.84Z"></path><path id="Background copy 13722" class="shp0" d="M237.14 25.84C234.74 25.84 232.79 23.89 232.79 21.48C232.79 19.07 234.74 17.13 237.14 17.13C239.55 17.13 241.5 19.07 241.5 21.48C241.5 23.89 239.55 25.84 237.14 25.84Z"></path><path id="Background copy 13723" class="shp0" d="M215.37 25.84C212.96 25.84 211.01 23.89 211.01 21.48C211.01 19.07 212.96 17.13 215.37 17.13C217.77 17.13 219.72 19.07 219.72 21.48C219.72 23.89 217.77 25.84 215.37 25.84Z"></path><path id="Background copy 13724" class="shp0" d="M193.59 25.84C191.18 25.84 189.23 23.89 189.23 21.48C189.23 19.07 191.18 17.13 193.59 17.13C196 17.13 197.94 19.07 197.94 21.48C197.94 23.89 196 25.84 193.59 25.84Z"></path><path id="Background copy 13725" class="shp0" d="M171.81 25.84C169.4 25.84 167.45 23.89 167.45 21.48C167.45 19.07 169.4 17.13 171.81 17.13C174.22 17.13 176.16 19.07 176.16 21.48C176.16 23.89 174.22 25.84 171.81 25.84Z"></path><path id="Background copy 13726" class="shp0" d="M150.03 25.84C147.62 25.84 145.67 23.89 145.67 21.48C145.67 19.07 147.62 17.13 150.03 17.13C152.44 17.13 154.38 19.07 154.38 21.48C154.38 23.89 152.44 25.84 150.03 25.84Z"></path><path id="Background copy 13727" class="shp0" d="M128.25 25.84C125.84 25.84 123.89 23.89 123.89 21.48C123.89 19.07 125.84 17.13 128.25 17.13C130.66 17.13 132.61 19.07 132.61 21.48C132.61 23.89 130.66 25.84 128.25 25.84Z"></path><path id="Background copy 13728" class="shp0" d="M106.47 25.84C104.06 25.84 102.12 23.89 102.12 21.48C102.12 19.07 104.06 17.13 106.47 17.13C108.88 17.13 110.83 19.07 110.83 21.48C110.83 23.89 108.88 25.84 106.47 25.84Z"></path><path id="Background copy 13729" class="shp0" d="M84.69 25.84C82.28 25.84 80.34 23.89 80.34 21.48C80.34 19.07 82.28 17.13 84.69 17.13C87.1 17.13 89.05 19.07 89.05 21.48C89.05 23.89 87.1 25.84 84.69 25.84Z"></path><path id="Background copy 13730" class="shp0" d="M62.91 25.84C60.5 25.84 58.56 23.89 58.56 21.48C58.56 19.07 60.5 17.13 62.91 17.13C65.32 17.13 67.27 19.07 67.27 21.48C67.27 23.89 65.32 25.84 62.91 25.84Z"></path><path id="Background copy 13731" class="shp0" d="M41.13 25.84C38.73 25.84 36.78 23.89 36.78 21.48C36.78 19.07 38.73 17.13 41.13 17.13C43.54 17.13 45.49 19.07 45.49 21.48C45.49 23.89 43.54 25.84 41.13 25.84Z"></path><path id="Background copy 13732" class="shp0" d="M19.36 25.84C16.95 25.84 15 23.89 15 21.48C15 19.07 16.95 17.13 19.36 17.13C21.76 17.13 23.71 19.07 23.71 21.48C23.71 23.89 21.76 25.84 19.36 25.84Z"></path></g><g id="Folder 4058 copy"><path id="Background copy 13733" class="shp0" d="M280.7 47.62C278.29 47.62 276.35 45.67 276.35 43.26C276.35 40.85 278.29 38.9 280.7 38.9C283.11 38.9 285.06 40.85 285.06 43.26C285.06 45.67 283.11 47.62 280.7 47.62Z"></path><path id="Background copy 13734" class="shp0" d="M258.92 47.62C256.51 47.62 254.57 45.67 254.57 43.26C254.57 40.85 256.51 38.9 258.92 38.9C261.33 38.9 263.28 40.85 263.28 43.26C263.28 45.67 261.33 47.62 258.92 47.62Z"></path><path id="Background copy 13735" class="shp0" d="M237.14 47.62C234.74 47.62 232.79 45.67 232.79 43.26C232.79 40.85 234.74 38.9 237.14 38.9C239.55 38.9 241.5 40.85 241.5 43.26C241.5 45.67 239.55 47.62 237.14 47.62Z"></path><path id="Background copy 13736" class="shp0" d="M215.37 47.62C212.96 47.62 211.01 45.67 211.01 43.26C211.01 40.85 212.96 38.9 215.37 38.9C217.77 38.9 219.72 40.85 219.72 43.26C219.72 45.67 217.77 47.62 215.37 47.62Z"></path><path id="Background copy 13737" class="shp0" d="M193.59 47.62C191.18 47.62 189.23 45.67 189.23 43.26C189.23 40.85 191.18 38.9 193.59 38.9C196 38.9 197.94 40.85 197.94 43.26C197.94 45.67 196 47.62 193.59 47.62Z"></path><path id="Background copy 13738" class="shp0" d="M171.81 47.62C169.4 47.62 167.45 45.67 167.45 43.26C167.45 40.85 169.4 38.9 171.81 38.9C174.22 38.9 176.16 40.85 176.16 43.26C176.16 45.67 174.22 47.62 171.81 47.62Z"></path><path id="Background copy 13739" class="shp0" d="M150.03 47.62C147.62 47.62 145.67 45.67 145.67 43.26C145.67 40.85 147.62 38.9 150.03 38.9C152.44 38.9 154.38 40.85 154.38 43.26C154.38 45.67 152.44 47.62 150.03 47.62Z"></path><path id="Background copy 13740" class="shp0" d="M128.25 47.62C125.84 47.62 123.89 45.67 123.89 43.26C123.89 40.85 125.84 38.9 128.25 38.9C130.66 38.9 132.61 40.85 132.61 43.26C132.61 45.67 130.66 47.62 128.25 47.62Z"></path><path id="Background copy 13741" class="shp0" d="M106.47 47.62C104.06 47.62 102.12 45.67 102.12 43.26C102.12 40.85 104.06 38.9 106.47 38.9C108.88 38.9 110.83 40.85 110.83 43.26C110.83 45.67 108.88 47.62 106.47 47.62Z"></path><path id="Background copy 13742" class="shp0" d="M84.69 47.62C82.28 47.62 80.34 45.67 80.34 43.26C80.34 40.85 82.28 38.9 84.69 38.9C87.1 38.9 89.05 40.85 89.05 43.26C89.05 45.67 87.1 47.62 84.69 47.62Z"></path><path id="Background copy 13743" class="shp0" d="M62.91 47.62C60.5 47.62 58.56 45.67 58.56 43.26C58.56 40.85 60.5 38.9 62.91 38.9C65.32 38.9 67.27 40.85 67.27 43.26C67.27 45.67 65.32 47.62 62.91 47.62Z"></path><path id="Background copy 13744" class="shp0" d="M41.13 47.62C38.73 47.62 36.78 45.67 36.78 43.26C36.78 40.85 38.73 38.9 41.13 38.9C43.54 38.9 45.49 40.85 45.49 43.26C45.49 45.67 43.54 47.62 41.13 47.62Z"></path><path id="Background copy 13745" class="shp0" d="M19.36 47.62C16.95 47.62 15 45.67 15 43.26C15 40.85 16.95 38.9 19.36 38.9C21.76 38.9 23.71 40.85 23.71 43.26C23.71 45.67 21.76 47.62 19.36 47.62Z"></path></g><g id="Folder 4058 copy 2"><path id="Background copy 13746" class="shp0" d="M280.7 69.39C278.29 69.39 276.35 67.45 276.35 65.04C276.35 62.63 278.29 60.68 280.7 60.68C283.11 60.68 285.06 62.63 285.06 65.04C285.06 67.45 283.11 69.39 280.7 69.39Z"></path><path id="Background copy 13747" class="shp0" d="M258.92 69.39C256.51 69.39 254.57 67.45 254.57 65.04C254.57 62.63 256.51 60.68 258.92 60.68C261.33 60.68 263.28 62.63 263.28 65.04C263.28 67.45 261.33 69.39 258.92 69.39Z"></path><path id="Background copy 13748" class="shp0" d="M237.14 69.39C234.74 69.39 232.79 67.45 232.79 65.04C232.79 62.63 234.74 60.68 237.14 60.68C239.55 60.68 241.5 62.63 241.5 65.04C241.5 67.45 239.55 69.39 237.14 69.39Z"></path><path id="Background copy 13749" class="shp0" d="M215.37 69.39C212.96 69.39 211.01 67.45 211.01 65.04C211.01 62.63 212.96 60.68 215.37 60.68C217.77 60.68 219.72 62.63 219.72 65.04C219.72 67.45 217.77 69.39 215.37 69.39Z"></path><path id="Background copy 13750" class="shp0" d="M193.59 69.39C191.18 69.39 189.23 67.45 189.23 65.04C189.23 62.63 191.18 60.68 193.59 60.68C196 60.68 197.94 62.63 197.94 65.04C197.94 67.45 196 69.39 193.59 69.39Z"></path><path id="Background copy 13751" class="shp0" d="M171.81 69.39C169.4 69.39 167.45 67.45 167.45 65.04C167.45 62.63 169.4 60.68 171.81 60.68C174.22 60.68 176.16 62.63 176.16 65.04C176.16 67.45 174.22 69.39 171.81 69.39Z"></path><path id="Background copy 13752" class="shp0" d="M150.03 69.39C147.62 69.39 145.67 67.45 145.67 65.04C145.67 62.63 147.62 60.68 150.03 60.68C152.44 60.68 154.38 62.63 154.38 65.04C154.38 67.45 152.44 69.39 150.03 69.39Z"></path><path id="Background copy 13753" class="shp0" d="M128.25 69.39C125.84 69.39 123.89 67.45 123.89 65.04C123.89 62.63 125.84 60.68 128.25 60.68C130.66 60.68 132.61 62.63 132.61 65.04C132.61 67.45 130.66 69.39 128.25 69.39Z"></path><path id="Background copy 13754" class="shp0" d="M106.47 69.39C104.06 69.39 102.12 67.45 102.12 65.04C102.12 62.63 104.06 60.68 106.47 60.68C108.88 60.68 110.83 62.63 110.83 65.04C110.83 67.45 108.88 69.39 106.47 69.39Z"></path><path id="Background copy 13755" class="shp0" d="M84.69 69.39C82.28 69.39 80.34 67.45 80.34 65.04C80.34 62.63 82.28 60.68 84.69 60.68C87.1 60.68 89.05 62.63 89.05 65.04C89.05 67.45 87.1 69.39 84.69 69.39Z"></path><path id="Background copy 13756" class="shp0" d="M62.91 69.39C60.5 69.39 58.56 67.45 58.56 65.04C58.56 62.63 60.5 60.68 62.91 60.68C65.32 60.68 67.27 62.63 67.27 65.04C67.27 67.45 65.32 69.39 62.91 69.39Z"></path><path id="Background copy 13757" class="shp0" d="M41.13 69.39C38.73 69.39 36.78 67.45 36.78 65.04C36.78 62.63 38.73 60.68 41.13 60.68C43.54 60.68 45.49 62.63 45.49 65.04C45.49 67.45 43.54 69.39 41.13 69.39Z"></path><path id="Background copy 13758" class="shp0" d="M19.36 69.39C16.95 69.39 15 67.45 15 65.04C15 62.63 16.95 60.68 19.36 60.68C21.76 60.68 23.71 62.63 23.71 65.04C23.71 67.45 21.76 69.39 19.36 69.39Z"></path></g><g id="Folder 4058 copy 3"><path id="Background copy 13759" class="shp0" d="M280.7 91.17C278.29 91.17 276.35 89.23 276.35 86.82C276.35 84.41 278.29 82.46 280.7 82.46C283.11 82.46 285.06 84.41 285.06 86.82C285.06 89.23 283.11 91.17 280.7 91.17Z"></path><path id="Background copy 13760" class="shp0" d="M258.92 91.17C256.51 91.17 254.57 89.23 254.57 86.82C254.57 84.41 256.51 82.46 258.92 82.46C261.33 82.46 263.28 84.41 263.28 86.82C263.28 89.23 261.33 91.17 258.92 91.17Z"></path><path id="Background copy 13761" class="shp0" d="M237.14 91.17C234.74 91.17 232.79 89.23 232.79 86.82C232.79 84.41 234.74 82.46 237.14 82.46C239.55 82.46 241.5 84.41 241.5 86.82C241.5 89.23 239.55 91.17 237.14 91.17Z"></path><path id="Background copy 13762" class="shp0" d="M215.37 91.17C212.96 91.17 211.01 89.23 211.01 86.82C211.01 84.41 212.96 82.46 215.37 82.46C217.77 82.46 219.72 84.41 219.72 86.82C219.72 89.23 217.77 91.17 215.37 91.17Z"></path><path id="Background copy 13763" class="shp0" d="M193.59 91.17C191.18 91.17 189.23 89.23 189.23 86.82C189.23 84.41 191.18 82.46 193.59 82.46C196 82.46 197.94 84.41 197.94 86.82C197.94 89.23 196 91.17 193.59 91.17Z"></path><path id="Background copy 13764" class="shp0" d="M171.81 91.17C169.4 91.17 167.45 89.23 167.45 86.82C167.45 84.41 169.4 82.46 171.81 82.46C174.22 82.46 176.16 84.41 176.16 86.82C176.16 89.23 174.22 91.17 171.81 91.17Z"></path><path id="Background copy 13765" class="shp0" d="M150.03 91.17C147.62 91.17 145.67 89.23 145.67 86.82C145.67 84.41 147.62 82.46 150.03 82.46C152.44 82.46 154.38 84.41 154.38 86.82C154.38 89.23 152.44 91.17 150.03 91.17Z"></path><path id="Background copy 13766" class="shp0" d="M128.25 91.17C125.84 91.17 123.89 89.23 123.89 86.82C123.89 84.41 125.84 82.46 128.25 82.46C130.66 82.46 132.61 84.41 132.61 86.82C132.61 89.23 130.66 91.17 128.25 91.17Z"></path><path id="Background copy 13767" class="shp0" d="M106.47 91.17C104.06 91.17 102.12 89.23 102.12 86.82C102.12 84.41 104.06 82.46 106.47 82.46C108.88 82.46 110.83 84.41 110.83 86.82C110.83 89.23 108.88 91.17 106.47 91.17Z"></path><path id="Background copy 13768" class="shp0" d="M84.69 91.17C82.28 91.17 80.34 89.23 80.34 86.82C80.34 84.41 82.28 82.46 84.69 82.46C87.1 82.46 89.05 84.41 89.05 86.82C89.05 89.23 87.1 91.17 84.69 91.17Z"></path><path id="Background copy 13769" class="shp0" d="M62.91 91.17C60.5 91.17 58.56 89.23 58.56 86.82C58.56 84.41 60.5 82.46 62.91 82.46C65.32 82.46 67.27 84.41 67.27 86.82C67.27 89.23 65.32 91.17 62.91 91.17Z"></path><path id="Background copy 13770" class="shp0" d="M41.13 91.17C38.73 91.17 36.78 89.23 36.78 86.82C36.78 84.41 38.73 82.46 41.13 82.46C43.54 82.46 45.49 84.41 45.49 86.82C45.49 89.23 43.54 91.17 41.13 91.17Z"></path><path id="Background copy 13771" class="shp0" d="M19.36 91.17C16.95 91.17 15 89.23 15 86.82C15 84.41 16.95 82.46 19.36 82.46C21.76 82.46 23.71 84.41 23.71 86.82C23.71 89.23 21.76 91.17 19.36 91.17Z"></path></g><g id="Folder 4058 copy 4"><path id="Background copy 13772" class="shp0" d="M280.7 112.95C278.29 112.95 276.35 111 276.35 108.6C276.35 106.19 278.29 104.24 280.7 104.24C283.11 104.24 285.06 106.19 285.06 108.6C285.06 111 283.11 112.95 280.7 112.95Z"></path><path id="Background copy 13773" class="shp0" d="M258.92 112.95C256.51 112.95 254.57 111 254.57 108.6C254.57 106.19 256.51 104.24 258.92 104.24C261.33 104.24 263.28 106.19 263.28 108.6C263.28 111 261.33 112.95 258.92 112.95Z"></path><path id="Background copy 13774" class="shp0" d="M237.14 112.95C234.74 112.95 232.79 111 232.79 108.6C232.79 106.19 234.74 104.24 237.14 104.24C239.55 104.24 241.5 106.19 241.5 108.6C241.5 111 239.55 112.95 237.14 112.95Z"></path><path id="Background copy 13775" class="shp0" d="M215.37 112.95C212.96 112.95 211.01 111 211.01 108.6C211.01 106.19 212.96 104.24 215.37 104.24C217.77 104.24 219.72 106.19 219.72 108.6C219.72 111 217.77 112.95 215.37 112.95Z"></path><path id="Background copy 13776" class="shp0" d="M193.59 112.95C191.18 112.95 189.23 111 189.23 108.6C189.23 106.19 191.18 104.24 193.59 104.24C196 104.24 197.94 106.19 197.94 108.6C197.94 111 196 112.95 193.59 112.95Z"></path><path id="Background copy 13777" class="shp0" d="M171.81 112.95C169.4 112.95 167.45 111 167.45 108.6C167.45 106.19 169.4 104.24 171.81 104.24C174.22 104.24 176.16 106.19 176.16 108.6C176.16 111 174.22 112.95 171.81 112.95Z"></path><path id="Background copy 13778" class="shp0" d="M150.03 112.95C147.62 112.95 145.67 111 145.67 108.6C145.67 106.19 147.62 104.24 150.03 104.24C152.44 104.24 154.38 106.19 154.38 108.6C154.38 111 152.44 112.95 150.03 112.95Z"></path><path id="Background copy 13779" class="shp0" d="M128.25 112.95C125.84 112.95 123.89 111 123.89 108.6C123.89 106.19 125.84 104.24 128.25 104.24C130.66 104.24 132.61 106.19 132.61 108.6C132.61 111 130.66 112.95 128.25 112.95Z"></path><path id="Background copy 13780" class="shp0" d="M106.47 112.95C104.06 112.95 102.12 111 102.12 108.6C102.12 106.19 104.06 104.24 106.47 104.24C108.88 104.24 110.83 106.19 110.83 108.6C110.83 111 108.88 112.95 106.47 112.95Z"></path><path id="Background copy 13781" class="shp0" d="M84.69 112.95C82.28 112.95 80.34 111 80.34 108.6C80.34 106.19 82.28 104.24 84.69 104.24C87.1 104.24 89.05 106.19 89.05 108.6C89.05 111 87.1 112.95 84.69 112.95Z"></path><path id="Background copy 13782" class="shp0" d="M62.91 112.95C60.5 112.95 58.56 111 58.56 108.6C58.56 106.19 60.5 104.24 62.91 104.24C65.32 104.24 67.27 106.19 67.27 108.6C67.27 111 65.32 112.95 62.91 112.95Z"></path><path id="Background copy 13783" class="shp0" d="M41.13 112.95C38.73 112.95 36.78 111 36.78 108.6C36.78 106.19 38.73 104.24 41.13 104.24C43.54 104.24 45.49 106.19 45.49 108.6C45.49 111 43.54 112.95 41.13 112.95Z"></path><path id="Background copy 13784" class="shp0" d="M19.36 112.95C16.95 112.95 15 111 15 108.6C15 106.19 16.95 104.24 19.36 104.24C21.76 104.24 23.71 106.19 23.71 108.6C23.71 111 21.76 112.95 19.36 112.95Z"></path></g><g id="Folder 4058 copy 5"><path id="Background copy 13785" class="shp0" d="M280.7 134.73C278.29 134.73 276.35 132.78 276.35 130.38C276.35 127.97 278.29 126.02 280.7 126.02C283.11 126.02 285.06 127.97 285.06 130.38C285.06 132.78 283.11 134.73 280.7 134.73Z"></path><path id="Background copy 13786" class="shp0" d="M258.92 134.73C256.51 134.73 254.57 132.78 254.57 130.38C254.57 127.97 256.51 126.02 258.92 126.02C261.33 126.02 263.28 127.97 263.28 130.38C263.28 132.78 261.33 134.73 258.92 134.73Z"></path><path id="Background copy 13787" class="shp0" d="M237.14 134.73C234.74 134.73 232.79 132.78 232.79 130.38C232.79 127.97 234.74 126.02 237.14 126.02C239.55 126.02 241.5 127.97 241.5 130.38C241.5 132.78 239.55 134.73 237.14 134.73Z"></path><path id="Background copy 13788" class="shp0" d="M215.37 134.73C212.96 134.73 211.01 132.78 211.01 130.38C211.01 127.97 212.96 126.02 215.37 126.02C217.77 126.02 219.72 127.97 219.72 130.38C219.72 132.78 217.77 134.73 215.37 134.73Z"></path><path id="Background copy 13789" class="shp0" d="M193.59 134.73C191.18 134.73 189.23 132.78 189.23 130.38C189.23 127.97 191.18 126.02 193.59 126.02C196 126.02 197.94 127.97 197.94 130.38C197.94 132.78 196 134.73 193.59 134.73Z"></path><path id="Background copy 13790" class="shp0" d="M171.81 134.73C169.4 134.73 167.45 132.78 167.45 130.38C167.45 127.97 169.4 126.02 171.81 126.02C174.22 126.02 176.16 127.97 176.16 130.38C176.16 132.78 174.22 134.73 171.81 134.73Z"></path><path id="Background copy 13791" class="shp0" d="M150.03 134.73C147.62 134.73 145.67 132.78 145.67 130.38C145.67 127.97 147.62 126.02 150.03 126.02C152.44 126.02 154.38 127.97 154.38 130.38C154.38 132.78 152.44 134.73 150.03 134.73Z"></path><path id="Background copy 13792" class="shp0" d="M128.25 134.73C125.84 134.73 123.89 132.78 123.89 130.38C123.89 127.97 125.84 126.02 128.25 126.02C130.66 126.02 132.61 127.97 132.61 130.38C132.61 132.78 130.66 134.73 128.25 134.73Z"></path><path id="Background copy 13793" class="shp0" d="M106.47 134.73C104.06 134.73 102.12 132.78 102.12 130.38C102.12 127.97 104.06 126.02 106.47 126.02C108.88 126.02 110.83 127.97 110.83 130.38C110.83 132.78 108.88 134.73 106.47 134.73Z"></path><path id="Background copy 13794" class="shp0" d="M84.69 134.73C82.28 134.73 80.34 132.78 80.34 130.38C80.34 127.97 82.28 126.02 84.69 126.02C87.1 126.02 89.05 127.97 89.05 130.38C89.05 132.78 87.1 134.73 84.69 134.73Z"></path><path id="Background copy 13795" class="shp0" d="M62.91 134.73C60.5 134.73 58.56 132.78 58.56 130.38C58.56 127.97 60.5 126.02 62.91 126.02C65.32 126.02 67.27 127.97 67.27 130.38C67.27 132.78 65.32 134.73 62.91 134.73Z"></path><path id="Background copy 13796" class="shp0" d="M41.13 134.73C38.73 134.73 36.78 132.78 36.78 130.38C36.78 127.97 38.73 126.02 41.13 126.02C43.54 126.02 45.49 127.97 45.49 130.38C45.49 132.78 43.54 134.73 41.13 134.73Z"></path><path id="Background copy 13797" class="shp0" d="M19.36 134.73C16.95 134.73 15 132.78 15 130.38C15 127.97 16.95 126.02 19.36 126.02C21.76 126.02 23.71 127.97 23.71 130.38C23.71 132.78 21.76 134.73 19.36 134.73Z"></path></g><g id="Folder 4058 copy 6"><path id="Background copy 13798" class="shp0" d="M280.7 156.51C278.29 156.51 276.35 154.56 276.35 152.15C276.35 149.75 278.29 147.8 280.7 147.8C283.11 147.8 285.06 149.75 285.06 152.15C285.06 154.56 283.11 156.51 280.7 156.51Z"></path><path id="Background copy 13799" class="shp0" d="M258.92 156.51C256.51 156.51 254.57 154.56 254.57 152.15C254.57 149.75 256.51 147.8 258.92 147.8C261.33 147.8 263.28 149.75 263.28 152.15C263.28 154.56 261.33 156.51 258.92 156.51Z"></path><path id="Background copy 13800" class="shp0" d="M237.14 156.51C234.74 156.51 232.79 154.56 232.79 152.15C232.79 149.75 234.74 147.8 237.14 147.8C239.55 147.8 241.5 149.75 241.5 152.15C241.5 154.56 239.55 156.51 237.14 156.51Z"></path><path id="Background copy 13801" class="shp0" d="M215.37 156.51C212.96 156.51 211.01 154.56 211.01 152.15C211.01 149.75 212.96 147.8 215.37 147.8C217.77 147.8 219.72 149.75 219.72 152.15C219.72 154.56 217.77 156.51 215.37 156.51Z"></path><path id="Background copy 13802" class="shp0" d="M193.59 156.51C191.18 156.51 189.23 154.56 189.23 152.15C189.23 149.75 191.18 147.8 193.59 147.8C196 147.8 197.94 149.75 197.94 152.15C197.94 154.56 196 156.51 193.59 156.51Z"></path><path id="Background copy 13803" class="shp0" d="M171.81 156.51C169.4 156.51 167.45 154.56 167.45 152.15C167.45 149.75 169.4 147.8 171.81 147.8C174.22 147.8 176.16 149.75 176.16 152.15C176.16 154.56 174.22 156.51 171.81 156.51Z"></path><path id="Background copy 13804" class="shp0" d="M150.03 156.51C147.62 156.51 145.67 154.56 145.67 152.15C145.67 149.75 147.62 147.8 150.03 147.8C152.44 147.8 154.38 149.75 154.38 152.15C154.38 154.56 152.44 156.51 150.03 156.51Z"></path><path id="Background copy 13805" class="shp0" d="M128.25 156.51C125.84 156.51 123.89 154.56 123.89 152.15C123.89 149.75 125.84 147.8 128.25 147.8C130.66 147.8 132.61 149.75 132.61 152.15C132.61 154.56 130.66 156.51 128.25 156.51Z"></path><path id="Background copy 13806" class="shp0" d="M106.47 156.51C104.06 156.51 102.12 154.56 102.12 152.15C102.12 149.75 104.06 147.8 106.47 147.8C108.88 147.8 110.83 149.75 110.83 152.15C110.83 154.56 108.88 156.51 106.47 156.51Z"></path><path id="Background copy 13807" class="shp0" d="M84.69 156.51C82.28 156.51 80.34 154.56 80.34 152.15C80.34 149.75 82.28 147.8 84.69 147.8C87.1 147.8 89.05 149.75 89.05 152.15C89.05 154.56 87.1 156.51 84.69 156.51Z"></path><path id="Background copy 13808" class="shp0" d="M62.91 156.51C60.5 156.51 58.56 154.56 58.56 152.15C58.56 149.75 60.5 147.8 62.91 147.8C65.32 147.8 67.27 149.75 67.27 152.15C67.27 154.56 65.32 156.51 62.91 156.51Z"></path><path id="Background copy 13809" class="shp0" d="M41.13 156.51C38.73 156.51 36.78 154.56 36.78 152.15C36.78 149.75 38.73 147.8 41.13 147.8C43.54 147.8 45.49 149.75 45.49 152.15C45.49 154.56 43.54 156.51 41.13 156.51Z"></path><path id="Background copy 13810" class="shp0" d="M19.36 156.51C16.95 156.51 15 154.56 15 152.15C15 149.75 16.95 147.8 19.36 147.8C21.76 147.8 23.71 149.75 23.71 152.15C23.71 154.56 21.76 156.51 19.36 156.51Z"></path></g><g id="Folder 4058 copy 7"><path id="Background copy 13811" class="shp0" d="M280.7 178.29C278.29 178.29 276.35 176.34 276.35 173.93C276.35 171.52 278.29 169.58 280.7 169.58C283.11 169.58 285.06 171.52 285.06 173.93C285.06 176.34 283.11 178.29 280.7 178.29Z"></path><path id="Background copy 13812" class="shp0" d="M258.92 178.29C256.51 178.29 254.57 176.34 254.57 173.93C254.57 171.52 256.51 169.58 258.92 169.58C261.33 169.58 263.28 171.52 263.28 173.93C263.28 176.34 261.33 178.29 258.92 178.29Z"></path><path id="Background copy 13813" class="shp0" d="M237.14 178.29C234.74 178.29 232.79 176.34 232.79 173.93C232.79 171.52 234.74 169.58 237.14 169.58C239.55 169.58 241.5 171.52 241.5 173.93C241.5 176.34 239.55 178.29 237.14 178.29Z"></path><path id="Background copy 13814" class="shp0" d="M215.37 178.29C212.96 178.29 211.01 176.34 211.01 173.93C211.01 171.52 212.96 169.58 215.37 169.58C217.77 169.58 219.72 171.52 219.72 173.93C219.72 176.34 217.77 178.29 215.37 178.29Z"></path><path id="Background copy 13815" class="shp0" d="M193.59 178.29C191.18 178.29 189.23 176.34 189.23 173.93C189.23 171.52 191.18 169.58 193.59 169.58C196 169.58 197.94 171.52 197.94 173.93C197.94 176.34 196 178.29 193.59 178.29Z"></path><path id="Background copy 13816" class="shp0" d="M171.81 178.29C169.4 178.29 167.45 176.34 167.45 173.93C167.45 171.52 169.4 169.58 171.81 169.58C174.22 169.58 176.16 171.52 176.16 173.93C176.16 176.34 174.22 178.29 171.81 178.29Z"></path><path id="Background copy 13817" class="shp0" d="M150.03 178.29C147.62 178.29 145.67 176.34 145.67 173.93C145.67 171.52 147.62 169.58 150.03 169.58C152.44 169.58 154.38 171.52 154.38 173.93C154.38 176.34 152.44 178.29 150.03 178.29Z"></path><path id="Background copy 13818" class="shp0" d="M128.25 178.29C125.84 178.29 123.89 176.34 123.89 173.93C123.89 171.52 125.84 169.58 128.25 169.58C130.66 169.58 132.61 171.52 132.61 173.93C132.61 176.34 130.66 178.29 128.25 178.29Z"></path><path id="Background copy 13819" class="shp0" d="M106.47 178.29C104.06 178.29 102.12 176.34 102.12 173.93C102.12 171.52 104.06 169.58 106.47 169.58C108.88 169.58 110.83 171.52 110.83 173.93C110.83 176.34 108.88 178.29 106.47 178.29Z"></path><path id="Background copy 13820" class="shp0" d="M84.69 178.29C82.28 178.29 80.34 176.34 80.34 173.93C80.34 171.52 82.28 169.58 84.69 169.58C87.1 169.58 89.05 171.52 89.05 173.93C89.05 176.34 87.1 178.29 84.69 178.29Z"></path><path id="Background copy 13821" class="shp0" d="M62.91 178.29C60.5 178.29 58.56 176.34 58.56 173.93C58.56 171.52 60.5 169.58 62.91 169.58C65.32 169.58 67.27 171.52 67.27 173.93C67.27 176.34 65.32 178.29 62.91 178.29Z"></path><path id="Background copy 13822" class="shp0" d="M41.13 178.29C38.73 178.29 36.78 176.34 36.78 173.93C36.78 171.52 38.73 169.58 41.13 169.58C43.54 169.58 45.49 171.52 45.49 173.93C45.49 176.34 43.54 178.29 41.13 178.29Z"></path><path id="Background copy 13823" class="shp0" d="M19.36 178.29C16.95 178.29 15 176.34 15 173.93C15 171.52 16.95 169.58 19.36 169.58C21.76 169.58 23.71 171.52 23.71 173.93C23.71 176.34 21.76 178.29 19.36 178.29Z"></path></g><g id="Folder 4058 copy 8"><path id="Background copy 13824" class="shp0" d="M280.7 200.07C278.29 200.07 276.35 198.12 276.35 195.71C276.35 193.3 278.29 191.36 280.7 191.36C283.11 191.36 285.06 193.3 285.06 195.71C285.06 198.12 283.11 200.07 280.7 200.07Z"></path><path id="Background copy 13825" class="shp0" d="M258.92 200.07C256.51 200.07 254.57 198.12 254.57 195.71C254.57 193.3 256.51 191.36 258.92 191.36C261.33 191.36 263.28 193.3 263.28 195.71C263.28 198.12 261.33 200.07 258.92 200.07Z"></path><path id="Background copy 13826" class="shp0" d="M237.14 200.07C234.74 200.07 232.79 198.12 232.79 195.71C232.79 193.3 234.74 191.36 237.14 191.36C239.55 191.36 241.5 193.3 241.5 195.71C241.5 198.12 239.55 200.07 237.14 200.07Z"></path><path id="Background copy 13827" class="shp0" d="M215.37 200.07C212.96 200.07 211.01 198.12 211.01 195.71C211.01 193.3 212.96 191.36 215.37 191.36C217.77 191.36 219.72 193.3 219.72 195.71C219.72 198.12 217.77 200.07 215.37 200.07Z"></path><path id="Background copy 13828" class="shp0" d="M193.59 200.07C191.18 200.07 189.23 198.12 189.23 195.71C189.23 193.3 191.18 191.36 193.59 191.36C196 191.36 197.94 193.3 197.94 195.71C197.94 198.12 196 200.07 193.59 200.07Z"></path><path id="Background copy 13829" class="shp0" d="M171.81 200.07C169.4 200.07 167.45 198.12 167.45 195.71C167.45 193.3 169.4 191.36 171.81 191.36C174.22 191.36 176.16 193.3 176.16 195.71C176.16 198.12 174.22 200.07 171.81 200.07Z"></path><path id="Background copy 13830" class="shp0" d="M150.03 200.07C147.62 200.07 145.67 198.12 145.67 195.71C145.67 193.3 147.62 191.36 150.03 191.36C152.44 191.36 154.38 193.3 154.38 195.71C154.38 198.12 152.44 200.07 150.03 200.07Z"></path><path id="Background copy 13831" class="shp0" d="M128.25 200.07C125.84 200.07 123.89 198.12 123.89 195.71C123.89 193.3 125.84 191.36 128.25 191.36C130.66 191.36 132.61 193.3 132.61 195.71C132.61 198.12 130.66 200.07 128.25 200.07Z"></path><path id="Background copy 13832" class="shp0" d="M106.47 200.07C104.06 200.07 102.12 198.12 102.12 195.71C102.12 193.3 104.06 191.36 106.47 191.36C108.88 191.36 110.83 193.3 110.83 195.71C110.83 198.12 108.88 200.07 106.47 200.07Z"></path><path id="Background copy 13833" class="shp0" d="M84.69 200.07C82.28 200.07 80.34 198.12 80.34 195.71C80.34 193.3 82.28 191.36 84.69 191.36C87.1 191.36 89.05 193.3 89.05 195.71C89.05 198.12 87.1 200.07 84.69 200.07Z"></path><path id="Background copy 13834" class="shp0" d="M62.91 200.07C60.5 200.07 58.56 198.12 58.56 195.71C58.56 193.3 60.5 191.36 62.91 191.36C65.32 191.36 67.27 193.3 67.27 195.71C67.27 198.12 65.32 200.07 62.91 200.07Z"></path><path id="Background copy 13835" class="shp0" d="M41.13 200.07C38.73 200.07 36.78 198.12 36.78 195.71C36.78 193.3 38.73 191.36 41.13 191.36C43.54 191.36 45.49 193.3 45.49 195.71C45.49 198.12 43.54 200.07 41.13 200.07Z"></path><path id="Background copy 13836" class="shp0" d="M19.36 200.07C16.95 200.07 15 198.12 15 195.71C15 193.3 16.95 191.36 19.36 191.36C21.76 191.36 23.71 193.3 23.71 195.71C23.71 198.12 21.76 200.07 19.36 200.07Z"></path></g><g id="Folder 4058 copy 9"><path id="Background copy 13837" class="shp0" d="M280.7 221.85C278.29 221.85 276.35 219.9 276.35 217.49C276.35 215.08 278.29 213.13 280.7 213.13C283.11 213.13 285.06 215.08 285.06 217.49C285.06 219.9 283.11 221.85 280.7 221.85Z"></path><path id="Background copy 13838" class="shp0" d="M258.92 221.85C256.51 221.85 254.57 219.9 254.57 217.49C254.57 215.08 256.51 213.13 258.92 213.13C261.33 213.13 263.28 215.08 263.28 217.49C263.28 219.9 261.33 221.85 258.92 221.85Z"></path><path id="Background copy 13839" class="shp0" d="M237.14 221.85C234.74 221.85 232.79 219.9 232.79 217.49C232.79 215.08 234.74 213.13 237.14 213.13C239.55 213.13 241.5 215.08 241.5 217.49C241.5 219.9 239.55 221.85 237.14 221.85Z"></path><path id="Background copy 13840" class="shp0" d="M215.37 221.85C212.96 221.85 211.01 219.9 211.01 217.49C211.01 215.08 212.96 213.13 215.37 213.13C217.77 213.13 219.72 215.08 219.72 217.49C219.72 219.9 217.77 221.85 215.37 221.85Z"></path><path id="Background copy 13841" class="shp0" d="M193.59 221.85C191.18 221.85 189.23 219.9 189.23 217.49C189.23 215.08 191.18 213.13 193.59 213.13C196 213.13 197.94 215.08 197.94 217.49C197.94 219.9 196 221.85 193.59 221.85Z"></path><path id="Background copy 13842" class="shp0" d="M171.81 221.85C169.4 221.85 167.45 219.9 167.45 217.49C167.45 215.08 169.4 213.13 171.81 213.13C174.22 213.13 176.16 215.08 176.16 217.49C176.16 219.9 174.22 221.85 171.81 221.85Z"></path><path id="Background copy 13843" class="shp0" d="M150.03 221.85C147.62 221.85 145.67 219.9 145.67 217.49C145.67 215.08 147.62 213.13 150.03 213.13C152.44 213.13 154.38 215.08 154.38 217.49C154.38 219.9 152.44 221.85 150.03 221.85Z"></path><path id="Background copy 13844" class="shp0" d="M128.25 221.85C125.84 221.85 123.89 219.9 123.89 217.49C123.89 215.08 125.84 213.13 128.25 213.13C130.66 213.13 132.61 215.08 132.61 217.49C132.61 219.9 130.66 221.85 128.25 221.85Z"></path><path id="Background copy 13845" class="shp0" d="M106.47 221.85C104.06 221.85 102.12 219.9 102.12 217.49C102.12 215.08 104.06 213.13 106.47 213.13C108.88 213.13 110.83 215.08 110.83 217.49C110.83 219.9 108.88 221.85 106.47 221.85Z"></path><path id="Background copy 13846" class="shp0" d="M84.69 221.85C82.28 221.85 80.34 219.9 80.34 217.49C80.34 215.08 82.28 213.13 84.69 213.13C87.1 213.13 89.05 215.08 89.05 217.49C89.05 219.9 87.1 221.85 84.69 221.85Z"></path><path id="Background copy 13847" class="shp0" d="M62.91 221.85C60.5 221.85 58.56 219.9 58.56 217.49C58.56 215.08 60.5 213.13 62.91 213.13C65.32 213.13 67.27 215.08 67.27 217.49C67.27 219.9 65.32 221.85 62.91 221.85Z"></path><path id="Background copy 13848" class="shp0" d="M41.13 221.85C38.73 221.85 36.78 219.9 36.78 217.49C36.78 215.08 38.73 213.13 41.13 213.13C43.54 213.13 45.49 215.08 45.49 217.49C45.49 219.9 43.54 221.85 41.13 221.85Z"></path><path id="Background copy 13849" class="shp0" d="M19.36 221.85C16.95 221.85 15 219.9 15 217.49C15 215.08 16.95 213.13 19.36 213.13C21.76 213.13 23.71 215.08 23.71 217.49C23.71 219.9 21.76 221.85 19.36 221.85Z"></path></g><g id="Folder 4058 copy 10"><path id="Background copy 13850" class="shp0" d="M280.7 243.63C278.29 243.63 276.35 241.68 276.35 239.27C276.35 236.86 278.29 234.91 280.7 234.91C283.11 234.91 285.06 236.86 285.06 239.27C285.06 241.68 283.11 243.63 280.7 243.63Z"></path><path id="Background copy 13851" class="shp0" d="M258.92 243.63C256.51 243.63 254.57 241.68 254.57 239.27C254.57 236.86 256.51 234.91 258.92 234.91C261.33 234.91 263.28 236.86 263.28 239.27C263.28 241.68 261.33 243.63 258.92 243.63Z"></path><path id="Background copy 13852" class="shp0" d="M237.14 243.63C234.74 243.63 232.79 241.68 232.79 239.27C232.79 236.86 234.74 234.91 237.14 234.91C239.55 234.91 241.5 236.86 241.5 239.27C241.5 241.68 239.55 243.63 237.14 243.63Z"></path><path id="Background copy 13853" class="shp0" d="M215.37 243.63C212.96 243.63 211.01 241.68 211.01 239.27C211.01 236.86 212.96 234.91 215.37 234.91C217.77 234.91 219.72 236.86 219.72 239.27C219.72 241.68 217.77 243.63 215.37 243.63Z"></path><path id="Background copy 13854" class="shp0" d="M193.59 243.63C191.18 243.63 189.23 241.68 189.23 239.27C189.23 236.86 191.18 234.91 193.59 234.91C196 234.91 197.94 236.86 197.94 239.27C197.94 241.68 196 243.63 193.59 243.63Z"></path><path id="Background copy 13855" class="shp0" d="M171.81 243.63C169.4 243.63 167.45 241.68 167.45 239.27C167.45 236.86 169.4 234.91 171.81 234.91C174.22 234.91 176.16 236.86 176.16 239.27C176.16 241.68 174.22 243.63 171.81 243.63Z"></path><path id="Background copy 13856" class="shp0" d="M150.03 243.63C147.62 243.63 145.67 241.68 145.67 239.27C145.67 236.86 147.62 234.91 150.03 234.91C152.44 234.91 154.38 236.86 154.38 239.27C154.38 241.68 152.44 243.63 150.03 243.63Z"></path><path id="Background copy 13857" class="shp0" d="M128.25 243.63C125.84 243.63 123.89 241.68 123.89 239.27C123.89 236.86 125.84 234.91 128.25 234.91C130.66 234.91 132.61 236.86 132.61 239.27C132.61 241.68 130.66 243.63 128.25 243.63Z"></path><path id="Background copy 13858" class="shp0" d="M106.47 243.63C104.06 243.63 102.12 241.68 102.12 239.27C102.12 236.86 104.06 234.91 106.47 234.91C108.88 234.91 110.83 236.86 110.83 239.27C110.83 241.68 108.88 243.63 106.47 243.63Z"></path><path id="Background copy 13859" class="shp0" d="M84.69 243.63C82.28 243.63 80.34 241.68 80.34 239.27C80.34 236.86 82.28 234.91 84.69 234.91C87.1 234.91 89.05 236.86 89.05 239.27C89.05 241.68 87.1 243.63 84.69 243.63Z"></path><path id="Background copy 13860" class="shp0" d="M62.91 243.63C60.5 243.63 58.56 241.68 58.56 239.27C58.56 236.86 60.5 234.91 62.91 234.91C65.32 234.91 67.27 236.86 67.27 239.27C67.27 241.68 65.32 243.63 62.91 243.63Z"></path><path id="Background copy 13861" class="shp0" d="M41.13 243.63C38.73 243.63 36.78 241.68 36.78 239.27C36.78 236.86 38.73 234.91 41.13 234.91C43.54 234.91 45.49 236.86 45.49 239.27C45.49 241.68 43.54 243.63 41.13 243.63Z"></path><path id="Background copy 13862" class="shp0" d="M19.36 243.63C16.95 243.63 15 241.68 15 239.27C15 236.86 16.95 234.91 19.36 234.91C21.76 234.91 23.71 236.86 23.71 239.27C23.71 241.68 21.76 243.63 19.36 243.63Z"></path></g><g id="Folder 4058 copy 11"><use id="Background copy 13875" href="#img1" transform="matrix(1,0,0,1,15,256)"></use></g></g></svg>