<svg xmlns="http://www.w3.org/2000/svg" viewBox="0 0 268 268" width="268" height="268"><style>
		tspan { white-space:pre }
		.shp0 { fill: #1da1f2 } 
	</style><path id="Layer" class="shp0" d="M87.62 235.59C181.96 235.59 233.56 157.43 233.56 89.65C233.56 87.43 233.56 85.22 233.41 83.02C235.91 81.21 238.34 79.29 240.67 77.26C243 75.24 245.24 73.11 247.39 70.88C249.53 68.66 251.58 66.34 253.51 63.94C255.45 61.53 257.28 59.04 259 56.47C256.66 57.51 254.29 58.45 251.88 59.31C249.48 60.17 247.04 60.93 244.57 61.61C242.11 62.28 239.62 62.87 237.11 63.36C234.6 63.85 232.08 64.24 229.54 64.54C232.19 62.95 234.69 61.13 237.01 59.1C239.34 57.06 241.47 54.82 243.39 52.41C245.32 49.99 247.02 47.4 248.47 44.68C249.93 41.96 251.14 39.11 252.09 36.17C249.58 37.66 247 39.04 244.38 40.31C241.75 41.58 239.06 42.74 236.34 43.79C233.61 44.83 230.84 45.75 228.03 46.56C225.22 47.37 222.39 48.06 219.52 48.62C211.79 40.4 201.56 34.95 190.42 33.13C179.28 31.3 167.85 33.2 157.9 38.53C147.94 43.85 140.02 52.31 135.36 62.59C130.7 72.87 129.56 84.4 132.11 95.4C121.94 94.89 111.86 93.32 102.02 90.7C92.18 88.09 82.64 84.45 73.56 79.85C64.48 75.24 55.9 69.7 47.98 63.31C40.05 56.92 32.82 49.71 26.4 41.81C23.15 47.41 20.99 53.56 20.03 59.96C19.06 66.36 19.32 72.89 20.78 79.19C22.24 85.49 24.88 91.46 28.57 96.79C32.25 102.11 36.9 106.69 42.28 110.28C40.25 110.22 38.22 110.04 36.21 109.74C34.2 109.43 32.21 109.01 30.25 108.47C28.29 107.93 26.37 107.27 24.49 106.5C22.61 105.73 20.78 104.85 19 103.86C19 104.07 19 104.29 19 104.51C19 110.39 20.01 116.22 21.99 121.76C23.97 127.29 26.88 132.44 30.6 136.99C34.33 141.54 38.8 145.42 43.84 148.45C48.87 151.48 54.39 153.63 60.15 154.79C58.27 155.3 56.36 155.71 54.44 156C52.51 156.3 50.57 156.48 48.62 156.56C46.67 156.63 44.72 156.59 42.78 156.45C40.84 156.3 38.9 156.04 36.99 155.67C38.62 160.74 41.03 165.52 44.12 169.84C47.22 174.17 50.97 177.99 55.24 181.16C59.51 184.33 64.25 186.83 69.28 188.54C74.32 190.26 79.59 191.19 84.91 191.29C80.41 194.83 75.62 197.98 70.59 200.72C65.57 203.47 60.32 205.78 54.91 207.65C49.5 209.52 43.94 210.93 38.3 211.88C32.65 212.82 26.93 213.3 21.21 213.29C20.19 213.29 19.17 213.27 18.15 213.24C17.13 213.21 16.11 213.16 15.09 213.1C14.08 213.04 13.06 212.96 12.04 212.87C11.03 212.78 10.01 212.67 9 212.55C14.83 216.29 20.91 219.61 27.21 222.48C33.51 225.35 40.01 227.76 46.65 229.71C53.3 231.65 60.07 233.12 66.93 234.1C73.78 235.07 80.7 235.56 87.62 235.55"></path></svg>